<svg version="1.0" xmlns="http://www.w3.org/2000/svg"
 width="512.000000pt" height="512.000000pt" viewBox="0 0 512.000000 512.000000"
 preserveAspectRatio="xMidYMid meet">
<metadata>
Created by potrace 1.16, written by Peter Selinger 2001-2019
</metadata>
<g transform="translate(0.000000,512.000000) scale(0.100000,-0.100000)"
fill="#000000" stroke="none">
<path d="M1 4913 l0 -208 18 55 c29 91 61 142 130 211 69 69 120 101 211 130
l55 18 -207 0 -208 1 1 -207z"/>
<path d="M4760 5101 c91 -29 142 -61 211 -130 69 -69 101 -120 130 -211 l18
-55 0 208 1 207 -207 -1 -208 0 55 -18z"/>
<path d="M4295 4249 c-79 -12 -164 -55 -193 -98 -40 -62 -52 -124 -52 -281 0
-282 54 -354 285 -381 73 -9 123 -9 198 0 134 15 196 43 236 106 40 64 51 122
51 281 0 144 -17 224 -62 287 -55 77 -262 115 -463 86z"/>
<path d="M568 3170 c-101 -13 -171 -48 -208 -106 -58 -91 -55 -43 -55 -1054
l0 -935 23 -57 c49 -121 141 -162 362 -162 214 0 305 36 357 141 l28 58 6 545
c3 307 10 560 16 580 43 154 122 218 266 213 108 -3 175 -54 220 -165 20 -51
21 -72 27 -598 7 -595 8 -599 67 -679 53 -69 220 -111 390 -97 166 14 245 53
290 145 l28 56 6 545 c6 570 8 602 53 688 36 70 105 105 206 105 114 0 181
-36 224 -121 43 -85 46 -129 46 -600 0 -246 5 -487 10 -535 23 -218 110 -281
390 -281 210 0 297 39 352 159 l23 50 0 590 c0 629 -3 676 -51 875 -65 264
-218 468 -429 570 -120 58 -191 74 -330 75 -147 0 -220 -20 -344 -95 -121 -72
-181 -121 -251 -205 l-62 -74 -39 59 c-55 81 -174 190 -256 233 -133 69 -333
103 -468 78 -124 -23 -256 -113 -368 -251 l-37 -45 0 35 c0 87 -54 186 -118
219 -76 38 -247 57 -374 41z"/>
<path d="M4260 3157 c-91 -21 -144 -58 -177 -124 l-28 -58 -3 -939 c-3 -1016
-4 -995 50 -1077 55 -82 233 -124 429 -101 179 21 252 75 279 206 7 35 10 349
8 981 l-3 930 -23 47 c-51 104 -135 139 -337 144 -88 2 -160 -1 -195 -9z"/>
<path d="M1 208 l-1 -208 208 1 207 0 -55 18 c-91 29 -142 61 -211 130 -69 69
-101 120 -130 211 l-18 55 0 -207z"/>
<path d="M5106 378 c-13 -70 -66 -160 -134 -228 -70 -70 -121 -102 -212 -131
l-55 -18 208 0 207 -1 0 205 c0 113 -2 205 -4 205 -2 0 -7 -15 -10 -32z"/>
</g>
</svg>